<svg xmlns="http://www.w3.org/2000/svg" xmlns:xlink="http://www.w3.org/1999/xlink" width="800" zoomAndPan="magnify" viewBox="0 0 600 599.999999" height="800" preserveAspectRatio="xMidYMid meet" version="1.0"><defs><g/><clipPath id="8d2b35f539"><path d="M 4.839844 120 L 224 120 L 224 480 L 4.839844 480 Z M 4.839844 120 " clip-rule="nonzero"/></clipPath></defs><g clip-path="url(#8d2b35f539)"><path fill="#ff914d" d="M 201.4375 156.65625 L 79.253906 140.773438 L 60.386719 138.136719 L 201.4375 120.199219 Z M 171.496094 479.71875 L 4.253906 418.519531 L 4.253906 150.527344 L 171.496094 211.746094 Z M 223.34375 444.855469 L 188.167969 440.628906 L 188.167969 206.183594 C 188.113281 205.34375 187.941406 204.53125 187.660156 203.738281 C 187.382812 202.945312 187 202.207031 186.515625 201.523438 C 186.03125 200.835938 185.460938 200.230469 184.8125 199.699219 C 184.160156 199.167969 183.449219 198.738281 182.679688 198.402344 L 67.15625 155.980469 L 72.648438 156.730469 L 223.269531 175.835938 Z M 223.34375 444.855469 " fill-opacity="1" fill-rule="nonzero"/></g><g fill="#ff914d" fill-opacity="1"><g transform="translate(247.946152, 267.970363)"><g><path d="M 21.5625 -53.71875 L 0.375 -53.71875 L 0.375 -66.1875 L 58.0625 -66.1875 L 58.0625 -53.71875 L 36.875 -53.71875 L 36.875 0 L 21.5625 0 Z M 21.5625 -53.71875 "/></g></g></g><g fill="#ff914d" fill-opacity="1"><g transform="translate(306.379082, 267.970363)"><g><path d="M 39.53125 1.140625 C 32.78125 1.140625 26.675781 -0.320312 21.21875 -3.25 C 15.769531 -6.1875 11.484375 -10.253906 8.359375 -15.453125 C 5.242188 -20.660156 3.6875 -26.539062 3.6875 -33.09375 C 3.6875 -39.65625 5.242188 -45.535156 8.359375 -50.734375 C 11.484375 -55.929688 15.769531 -59.992188 21.21875 -62.921875 C 26.675781 -65.859375 32.8125 -67.328125 39.625 -67.328125 C 45.363281 -67.328125 50.546875 -66.316406 55.171875 -64.296875 C 59.804688 -62.285156 63.703125 -59.390625 66.859375 -55.609375 L 57.015625 -46.53125 C 52.546875 -51.695312 47 -54.28125 40.375 -54.28125 C 36.28125 -54.28125 32.625 -53.378906 29.40625 -51.578125 C 26.195312 -49.785156 23.691406 -47.28125 21.890625 -44.0625 C 20.097656 -40.851562 19.203125 -37.195312 19.203125 -33.09375 C 19.203125 -29 20.097656 -25.34375 21.890625 -22.125 C 23.691406 -18.914062 26.195312 -16.410156 29.40625 -14.609375 C 32.625 -12.816406 36.28125 -11.921875 40.375 -11.921875 C 47 -11.921875 52.546875 -14.535156 57.015625 -19.765625 L 66.859375 -10.6875 C 63.703125 -6.84375 59.789062 -3.910156 55.125 -1.890625 C 50.457031 0.128906 45.257812 1.140625 39.53125 1.140625 Z M 39.53125 1.140625 "/></g></g></g><g fill="#ff914d" fill-opacity="1"><g transform="translate(375.685461, 267.970363)"><g><path d="M 52.578125 -34.140625 L 66.578125 -34.140625 L 66.578125 -7.28125 C 62.984375 -4.570312 58.820312 -2.488281 54.09375 -1.03125 C 49.363281 0.414062 44.601562 1.140625 39.8125 1.140625 C 32.9375 1.140625 26.753906 -0.320312 21.265625 -3.25 C 15.785156 -6.1875 11.484375 -10.253906 8.359375 -15.453125 C 5.242188 -20.660156 3.6875 -26.539062 3.6875 -33.09375 C 3.6875 -39.65625 5.242188 -45.535156 8.359375 -50.734375 C 11.484375 -55.929688 15.816406 -59.992188 21.359375 -62.921875 C 26.910156 -65.859375 33.15625 -67.328125 40.09375 -67.328125 C 45.894531 -67.328125 51.160156 -66.347656 55.890625 -64.390625 C 60.617188 -62.441406 64.585938 -59.609375 67.796875 -55.890625 L 57.96875 -46.8125 C 53.238281 -51.789062 47.53125 -54.28125 40.84375 -54.28125 C 36.625 -54.28125 32.875 -53.394531 29.59375 -51.625 C 26.320312 -49.863281 23.769531 -47.375 21.9375 -44.15625 C 20.113281 -40.945312 19.203125 -37.257812 19.203125 -33.09375 C 19.203125 -29 20.113281 -25.34375 21.9375 -22.125 C 23.769531 -18.914062 26.304688 -16.410156 29.546875 -14.609375 C 32.796875 -12.816406 36.5 -11.921875 40.65625 -11.921875 C 45.070312 -11.921875 49.046875 -12.863281 52.578125 -14.75 Z M 52.578125 -34.140625 "/></g></g></g><g fill="#ff914d" fill-opacity="1"><g transform="translate(448.596127, 267.970363)"><g/></g></g><g fill="#ff914d" fill-opacity="1"><g transform="translate(247.946152, 399.520676)"><g><path d="M 7.84375 -66.1875 L 23.171875 -66.1875 L 23.171875 -12.484375 L 56.359375 -12.484375 L 56.359375 0 L 7.84375 0 Z M 7.84375 -66.1875 "/></g></g></g><g fill="#ff914d" fill-opacity="1"><g transform="translate(305.055364, 399.520676)"><g><path d="M 6.8125 -50.875 L 21.5625 -50.875 L 21.5625 0 L 6.8125 0 Z M 14.171875 -57.96875 C 11.460938 -57.96875 9.253906 -58.753906 7.546875 -60.328125 C 5.847656 -61.898438 5 -63.851562 5 -66.1875 C 5 -68.519531 5.847656 -70.472656 7.546875 -72.046875 C 9.253906 -73.628906 11.460938 -74.421875 14.171875 -74.421875 C 16.890625 -74.421875 19.097656 -73.660156 20.796875 -72.140625 C 22.492188 -70.628906 23.34375 -68.742188 23.34375 -66.484375 C 23.34375 -64.023438 22.492188 -61.988281 20.796875 -60.375 C 19.097656 -58.769531 16.890625 -57.96875 14.171875 -57.96875 Z M 14.171875 -57.96875 "/></g></g></g><g fill="#ff914d" fill-opacity="1"><g transform="translate(333.515418, 399.520676)"><g><path d="M 36.875 -51.625 C 41.601562 -51.625 45.90625 -50.535156 49.78125 -48.359375 C 53.664062 -46.191406 56.707031 -43.132812 58.90625 -39.1875 C 61.113281 -35.25 62.21875 -30.664062 62.21875 -25.4375 C 62.21875 -20.207031 61.113281 -15.617188 58.90625 -11.671875 C 56.707031 -7.734375 53.664062 -4.675781 49.78125 -2.5 C 45.90625 -0.332031 41.601562 0.75 36.875 0.75 C 29.882812 0.75 24.554688 -1.453125 20.890625 -5.859375 L 20.890625 0 L 6.8125 0 L 6.8125 -70.171875 L 21.5625 -70.171875 L 21.5625 -45.484375 C 25.28125 -49.578125 30.382812 -51.625 36.875 -51.625 Z M 34.328125 -11.34375 C 38.109375 -11.34375 41.210938 -12.617188 43.640625 -15.171875 C 46.066406 -17.722656 47.28125 -21.144531 47.28125 -25.4375 C 47.28125 -29.726562 46.066406 -33.148438 43.640625 -35.703125 C 41.210938 -38.253906 38.109375 -39.53125 34.328125 -39.53125 C 30.546875 -39.53125 27.441406 -38.253906 25.015625 -35.703125 C 22.585938 -33.148438 21.375 -29.726562 21.375 -25.4375 C 21.375 -21.144531 22.585938 -17.722656 25.015625 -15.171875 C 27.441406 -12.617188 30.546875 -11.34375 34.328125 -11.34375 Z M 34.328125 -11.34375 "/></g></g></g><g fill="#ff914d" fill-opacity="1"><g transform="translate(398.756074, 399.520676)"><g><path d="M 20.890625 -44.15625 C 22.660156 -46.613281 25.039062 -48.472656 28.03125 -49.734375 C 31.03125 -50.992188 34.484375 -51.625 38.390625 -51.625 L 38.390625 -38.015625 C 36.753906 -38.140625 35.648438 -38.203125 35.078125 -38.203125 C 30.859375 -38.203125 27.550781 -37.019531 25.15625 -34.65625 C 22.757812 -32.289062 21.5625 -28.742188 21.5625 -24.015625 L 21.5625 0 L 6.8125 0 L 6.8125 -50.875 L 20.890625 -50.875 Z M 20.890625 -44.15625 "/></g></g></g><g fill="#ff914d" fill-opacity="1"><g transform="translate(439.507847, 399.520676)"><g><path d="M 27.328125 -51.625 C 35.210938 -51.625 41.265625 -49.75 45.484375 -46 C 49.703125 -42.25 51.8125 -36.59375 51.8125 -29.03125 L 51.8125 0 L 38.015625 0 L 38.015625 -6.328125 C 35.242188 -1.609375 30.070312 0.75 22.5 0.75 C 18.59375 0.75 15.203125 0.0859375 12.328125 -1.234375 C 9.460938 -2.554688 7.273438 -4.382812 5.765625 -6.71875 C 4.253906 -9.050781 3.5 -11.695312 3.5 -14.65625 C 3.5 -19.382812 5.28125 -23.101562 8.84375 -25.8125 C 12.40625 -28.519531 17.90625 -29.875 25.34375 -29.875 L 37.0625 -29.875 C 37.0625 -33.09375 36.082031 -35.566406 34.125 -37.296875 C 32.175781 -39.035156 29.25 -39.90625 25.34375 -39.90625 C 22.632812 -39.90625 19.96875 -39.476562 17.34375 -38.625 C 14.726562 -37.78125 12.507812 -36.628906 10.6875 -35.171875 L 5.390625 -45.484375 C 8.160156 -47.441406 11.484375 -48.953125 15.359375 -50.015625 C 19.242188 -51.085938 23.234375 -51.625 27.328125 -51.625 Z M 26.1875 -9.171875 C 28.707031 -9.171875 30.945312 -9.753906 32.90625 -10.921875 C 34.863281 -12.085938 36.25 -13.804688 37.0625 -16.078125 L 37.0625 -21.28125 L 26.953125 -21.28125 C 20.898438 -21.28125 17.875 -19.289062 17.875 -15.3125 C 17.875 -13.425781 18.613281 -11.929688 20.09375 -10.828125 C 21.570312 -9.722656 23.601562 -9.171875 26.1875 -9.171875 Z M 26.1875 -9.171875 "/></g></g></g><g fill="#ff914d" fill-opacity="1"><g transform="translate(497.846224, 399.520676)"><g><path d="M 20.890625 -44.15625 C 22.660156 -46.613281 25.039062 -48.472656 28.03125 -49.734375 C 31.03125 -50.992188 34.484375 -51.625 38.390625 -51.625 L 38.390625 -38.015625 C 36.753906 -38.140625 35.648438 -38.203125 35.078125 -38.203125 C 30.859375 -38.203125 27.550781 -37.019531 25.15625 -34.65625 C 22.757812 -32.289062 21.5625 -28.742188 21.5625 -24.015625 L 21.5625 0 L 6.8125 0 L 6.8125 -50.875 L 20.890625 -50.875 Z M 20.890625 -44.15625 "/></g></g></g><g fill="#ff914d" fill-opacity="1"><g transform="translate(538.597997, 399.520676)"><g><path d="M 57.3125 -50.875 L 34.328125 3.125 C 31.992188 8.988281 29.109375 13.117188 25.671875 15.515625 C 22.234375 17.910156 18.085938 19.109375 13.234375 19.109375 C 10.585938 19.109375 7.972656 18.695312 5.390625 17.875 C 2.804688 17.050781 0.691406 15.914062 -0.953125 14.46875 L 4.4375 3.96875 C 5.570312 4.976562 6.878906 5.765625 8.359375 6.328125 C 9.847656 6.898438 11.316406 7.1875 12.765625 7.1875 C 14.785156 7.1875 16.425781 6.695312 17.6875 5.71875 C 18.945312 4.738281 20.082031 3.113281 21.09375 0.84375 L 21.28125 0.375 L -0.75 -50.875 L 14.46875 -50.875 L 28.75 -16.359375 L 43.125 -50.875 Z M 57.3125 -50.875 "/></g></g></g></svg>